<?xml version="1.0" encoding="utf-8"?>
<!-- Generator: Adobe Illustrator 16.0.0, SVG Export Plug-In . SVG Version: 6.00 Build 0)  -->
<!DOCTYPE svg PUBLIC "-//W3C//DTD SVG 1.1//EN" "http://www.w3.org/Graphics/SVG/1.1/DTD/svg11.dtd">
<svg version="1.1" id="Calque_1" xmlns="http://www.w3.org/2000/svg" xmlns:xlink="http://www.w3.org/1999/xlink" x="0px" y="0px"
	 width="48.19px" height="48.19px" viewBox="0 0 48.19 48.19" enable-background="new 0 0 48.19 48.19" xml:space="preserve">
<g>
	
		<circle fill="#FFFFFF" stroke="#9D9D9C" stroke-width="1.4489" stroke-linecap="round" stroke-linejoin="round" stroke-miterlimit="10" cx="24.095" cy="24.095" r="23.182"/>
	<g>
		<g>
			<path d="M24.174,28.467H24.6v14.242h-0.425V28.467z"/>
			<path d="M28.376,42.709h-0.424V28.467h6.125c2.883,0,4.6,1.316,4.6,3.889c0,2.514-2.013,3.873-4.811,3.873h-5.49V42.709z
				 M28.376,35.83h5.701c2.374,0,4.176-1.258,4.176-3.475c0-2.232-1.398-3.488-4.176-3.488h-5.701V35.83z"/>
			<polygon points="21.701,28.467 15.79,42.313 15.746,42.313 9.978,28.467 9.513,28.467 15.492,42.709 16.041,42.709 
				22.187,28.467 			"/>
		</g>
		<g>
			<path d="M21.36,10.824h0.698v14.049h-0.423V11.316h-0.042l-6.424,13.557h-0.467L8.28,11.316H8.239v13.557H7.813V10.824h0.701
				l6.401,13.538h0.043L21.36,10.824z"/>
			<g>
				<circle fill="#D3072A" cx="31.872" cy="17.847" r="8.505"/>
				<g>
					<path fill="#FFFFFF" d="M26.351,15.723h1.104v0.576h0.019c0.302-0.438,0.745-0.692,1.298-0.692c0.534,0,1.01,0.198,1.241,0.707
						c0.247-0.369,0.69-0.707,1.281-0.707c0.905,0,1.557,0.42,1.557,1.522v2.845h-1.17v-2.411c0-0.564-0.047-1.035-0.713-1.035
						c-0.66,0-0.783,0.543-0.783,1.078v2.367h-1.168V17.59c0-0.493,0.034-1.062-0.709-1.062c-0.229,0-0.787,0.147-0.787,0.979v2.467
						h-1.169V15.723z"/>
					<path fill="#FFFFFF" d="M34.321,18.131c0.031,0.741,0.394,1.077,1.043,1.077c0.468,0,0.847-0.289,0.921-0.551h1.029
						c-0.33,1.004-1.029,1.432-1.988,1.432c-1.343,0-2.171-0.922-2.171-2.238c0-1.274,0.875-2.244,2.171-2.244
						c1.443,0,2.144,1.22,2.061,2.525H34.321z M36.223,17.39c-0.107-0.591-0.366-0.904-0.932-0.904c-0.742,0-0.953,0.575-0.97,0.904
						H36.223z"/>
				</g>
			</g>
		</g>
	</g>
</g>
</svg>
